<svg xmlns="http://www.w3.org/2000/svg" viewBox="0 0 32 32" fill="none">
  <path
    fill="#fff"
    d="M19.11 17.2c-.28-.14-1.63-.8-1.88-.9-.25-.09-.43-.14-.61.14-.18.28-.71.9-.87 1.08-.16.18-.32.21-.6.07-.28-.14-1.16-.43-2.22-1.37-.82-.73-1.38-1.63-1.54-1.9-.16-.28-.02-.43.12-.57.13-.13.28-.33.42-.49.14-.16.18-.28.28-.46.09-.18.05-.35-.02-.49-.07-.14-.61-1.47-.84-2.01-.22-.53-.45-.46-.61-.47l-.52-.01c-.18 0-.46.07-.71.35-.25.28-.95.93-.95 2.27 0 1.34.97 2.63 1.11 2.82.14.18 1.91 2.91 4.62 4.08.65.28 1.16.45 1.56.58.66.21 1.27.18 1.75.11.53-.08 1.63-.67 1.86-1.31.23-.64.23-1.18.16-1.31-.07-.12-.25-.19-.53-.33Z"
  />
  <path
    fill="#fff"
    d="M16.02 3.2c-7 0-12.68 5.67-12.68 12.67 0 2.22.58 4.39 1.67 6.29L3.2 28.8l6.81-1.78a12.72 12.72 0 0 0 6.01 1.53h.01c6.99 0 12.67-5.68 12.67-12.68 0-3.39-1.32-6.57-3.72-8.96A12.58 12.58 0 0 0 16.02 3.2Zm0 23.22h-.01a10.53 10.53 0 0 1-5.37-1.47l-.39-.23-4.04 1.06 1.08-3.94-.26-.4a10.48 10.48 0 0 1-1.61-5.58c0-5.8 4.72-10.52 10.53-10.52 2.81 0 5.45 1.09 7.44 3.08a10.46 10.46 0 0 1 3.08 7.44c0 5.81-4.72 10.53-10.52 10.53Z"
  />
</svg>
